<?xml version="1.0" encoding="utf-8"?>
<svg version="1.1" xmlns="http://www.w3.org/2000/svg" xmlns:xlink="http://www.w3.org/1999/xlink" x="0px" y="0px" viewBox="-499 559 160 44" style="enable-background:new -499 559 160 44;" xml:space="preserve">
<g fill="#A185E8">
	<path d="M-342.6,596.9h3.6v1.4h-5.3v-10.6h1.7V596.9z"/>
	<polygon points="-361.5,598.3 -357.7,587.7 -355.7,587.7 -351.9,598.3 -353.7,598.3 -356.7,589.8 -359.7,598.3"/>
	<rect x="-375.4" y="587.7" width="7.4" height="1.4"/>
	<rect x="-372.5" y="588.4" width="1.7" height="9.9"/>
	<rect x="-385.5" y="587.7" width="1.7" height="10.6"/>
	<path d="M-397.4,587.7h-3.2v0h-0.8v10.6h1.7v-3.8h2.4c1.9,0,3.4-1.5,3.4-3.4S-395.5,587.7-397.4,587.7z M-397.4,593h-2.4v-3.8h2.4c1.1,0,1.9,0.9,1.9,1.9S-396.3,593-397.4,593z"/>
	<polygon points="-418.5,598.3 -414.7,587.7 -412.7,587.7 -408.9,598.3 -410.7,598.3 -413.7,589.8 -416.7,598.3"/>
	<path d="M-428,595.5c-0.7,1-1.9,1.6-3.2,1.6c-2.2,0-4-1.8-4-4c0-2.2,1.8-4,4-4c1.3,0,2.5,0.6,3.2,1.6h1.8c-0.9-1.9-2.8-3.2-5-3.2c-3.1,0-5.5,2.5-5.5,5.6c0,3.1,2.5,5.5,5.5,5.5c2.2,0,4.1-1.3,5-3.2H-428z"/>
</g>
<g fill="#412e71">
	<path d="M-395.7,580h-3.9l-6.5-9.9v9.9h-3.9v-16h3.9l6.5,9.9v-10h3.9V580z"/>
	<path d="M-339.9,574.8c-2.8,2.8-7.5,2.8-10.3,0c-2.8-2.8-2.8-7.5,0-10.3c0.3-0.3,0.7-0.6,1.1-0.9c-1.4,0.4-2.7,1.1-3.8,2.1c-3.3,3.3-3.3,8.5,0,11.8s8.5,3.3,11.8,0c1.1-1.1,1.8-2.4,2.1-3.8C-339.3,574.1-339.6,574.5-339.9,574.8z"/>
	<polygon points="-383.6,563.9 -388.1,563.9 -393.9,580 -389.8,580 -385.9,568.2 -381.9,580 -377.8,580"/>
	<rect x="-437" y="563.9" width="3.9" height="14.2"/>
	<rect x="-437" y="576.9" width="9" height="3"/>
	<rect x="-376.8" y="563.9" width="12.3" height="3.1"/>
	<rect x="-372.6" y="565.5" width="3.9" height="14.6"/>
	<rect x="-362.5" y="563.8" width="3.9" height="16"/>
	<path d="M-412.8,573.2v-9.3h-3.9v9.3c0,1.6-1.3,2.8-2.8,2.8s-2.8-1.3-2.8-2.8h0v-9.3h-3.9v9.3c0,3.7,3,6.7,6.7,6.7S-412.8,576.9-412.8,573.2L-412.8,573.2z"/>
</g>
<linearGradient id="XMLID_2_" gradientUnits="userSpaceOnUse" x1="-496" y1="563" x2="-457" y2="602" gradientTransform="matrix(1 0 0 -1 0 1164)">
	<stop offset="0" style="stop-color:#783DA2"/>
	<stop offset="1" style="stop-color:#494CAE"/>
</linearGradient>
<path fill="url(#XMLID_2_)" d="M-465,559h-24c-5.5,0-10,4.5-10,10v24c0,5.5,4.5,10,10,10h24c5.5,0,10-4.5,10-10v-24C-455,563.5-459.5,559-465,559z"/>
<linearGradient id="XMLID_3_" gradientUnits="userSpaceOnUse" x1="-1035" y1="386" x2="-1004" y2="386" gradientTransform="matrix(0.7071 -0.7071 -0.7071 -0.7071 517.2944 132.8933)">
	<stop offset="0" style="stop-color:#783DA2"/>
	<stop offset="1" style="stop-color:#313375"/>
</linearGradient>
<circle fill="url(#XMLID_3_)" cx="-477" cy="581" r="15.3"/>
<path fill="#FFFFFF" d="M-463.9,586.9c-5.2,5.2-13.8,5.2-19,0c-5.2-5.2-5.2-13.8,0-19c0.6-0.6,1.3-1.2,2-1.7c-2.6,0.7-5,1.9-7,3.9c-6,6-6,15.7,0,21.7s15.7,6,21.7,0c2-2,3.3-4.4,3.9-7C-462.7,585.6-463.3,586.3-463.9,586.9z"/>
</svg>
