<?xml version="1.0" encoding="utf-8"?>
<!-- Generator: Adobe Illustrator 19.0.0, SVG Export Plug-In . SVG Version: 6.00 Build 0)  -->
<svg version="1.1" id="Layer_1" xmlns="http://www.w3.org/2000/svg" xmlns:xlink="http://www.w3.org/1999/xlink" x="0px" y="0px"
	 viewBox="0 0 160 44" enable-background="new 0 0 160 44" xml:space="preserve">
<g id="XMLID_24_">
	<path id="XMLID_25_" fill="#A185E8" d="M62.8,31.2c0.5-0.8,1.1-1.5,2-1.9c0.8-0.5,1.7-0.7,2.7-0.7c1.1,0,2.1,0.3,3,0.8
		c0.9,0.6,1.5,1.3,1.9,2.4h-2.1c-0.3-0.6-0.7-1-1.1-1.2c-0.5-0.3-1-0.4-1.7-0.4c-0.7,0-1.3,0.2-1.9,0.5s-1,0.8-1.3,1.4
		c-0.3,0.6-0.5,1.3-0.5,2.1c0,0.8,0.2,1.5,0.5,2.1c0.3,0.6,0.7,1,1.3,1.4s1.2,0.5,1.9,0.5c0.6,0,1.2-0.1,1.7-0.4
		c0.5-0.3,0.9-0.7,1.1-1.2h2.1c-0.4,1-1,1.8-1.9,2.3c-0.9,0.5-1.9,0.8-3,0.8c-1,0-1.9-0.2-2.7-0.7c-0.8-0.5-1.5-1.1-2-1.9
		c-0.5-0.8-0.7-1.8-0.7-2.8S62.3,32,62.8,31.2z"/>
	<path id="XMLID_27_" fill="#A185E8" d="M84.9,37.1h-4.4l-0.8,2.2h-1.8l3.8-10.6h2l3.8,10.6h-1.8L84.9,37.1z M84.4,35.7l-1.7-4.9
		L81,35.7H84.4z"/>
	<path id="XMLID_30_" fill="#A185E8" d="M100.3,33.4c-0.3,0.5-0.7,0.9-1.2,1.2c-0.6,0.3-1.3,0.4-2.1,0.4H95v4.3h-1.7V28.7h3.7
		c0.8,0,1.5,0.1,2.1,0.4c0.6,0.3,1,0.7,1.3,1.1c0.3,0.5,0.4,1,0.4,1.6C100.6,32.4,100.5,32.9,100.3,33.4z M98.4,33.1
		c0.3-0.3,0.5-0.7,0.5-1.3c0-1.2-0.7-1.7-2-1.7H95v3.5h1.9C97.6,33.6,98.1,33.4,98.4,33.1z"/>
	<path id="XMLID_33_" fill="#A185E8" d="M108.2,28.7v10.6h-1.7V28.7H108.2z"/>
	<path id="XMLID_35_" fill="#A185E8" d="M121.4,28.7v1.4h-2.8v9.2h-1.7v-9.2H114v-1.4H121.4z"/>
	<path id="XMLID_37_" fill="#A185E8" d="M133.6,37.1h-4.4l-0.8,2.2h-1.8l3.8-10.6h2l3.8,10.6h-1.8L133.6,37.1z M133.2,35.7l-1.7-4.9
		l-1.7,4.9H133.2z"/>
	<path id="XMLID_40_" fill="#A185E8" d="M143.7,37.9h3.6v1.4H142V28.7h1.7V37.9z"/>
	<path id="XMLID_42_" fill="#A185E8" d="M154.4,39c-0.6-0.2-1-0.6-1.3-1.1c-0.3-0.5-0.5-1-0.5-1.6h1.9c0,0.5,0.2,0.8,0.5,1.1
		c0.3,0.3,0.8,0.4,1.3,0.4c0.6,0,1.1-0.1,1.4-0.4c0.3-0.3,0.5-0.7,0.5-1.1c0-0.4-0.1-0.6-0.3-0.9s-0.5-0.4-0.8-0.5
		c-0.3-0.1-0.7-0.3-1.3-0.4c-0.7-0.2-1.3-0.4-1.7-0.6c-0.4-0.2-0.8-0.5-1.1-0.9c-0.3-0.4-0.5-0.9-0.5-1.6c0-0.6,0.2-1.1,0.5-1.6
		c0.3-0.5,0.7-0.8,1.3-1c0.5-0.2,1.2-0.4,1.9-0.4c1,0,1.9,0.3,2.5,0.8c0.7,0.5,1,1.2,1.1,2.1H158c0-0.4-0.2-0.7-0.5-1
		c-0.3-0.3-0.8-0.4-1.3-0.4c-0.5,0-0.9,0.1-1.2,0.4c-0.3,0.3-0.5,0.6-0.5,1.1c0,0.3,0.1,0.6,0.3,0.8c0.2,0.2,0.4,0.4,0.8,0.5
		c0.3,0.1,0.7,0.3,1.2,0.4c0.7,0.2,1.3,0.4,1.7,0.6c0.4,0.2,0.8,0.5,1.1,0.9c0.3,0.4,0.5,0.9,0.5,1.6c0,0.5-0.1,1-0.4,1.5
		c-0.3,0.5-0.7,0.9-1.3,1.1c-0.6,0.3-1.2,0.4-2,0.4C155.6,39.4,155,39.3,154.4,39z"/>
</g>
<g id="XMLID_8_">
	<path id="XMLID_9_" fill="#FFFFFF" d="M65.9,17.9H71v3h-9v-16h3.9V17.9z"/>
	<path id="XMLID_11_" fill="#FFFFFF" d="M76.7,4.9v9.6c0,1,0.2,1.7,0.7,2.2c0.5,0.5,1.2,0.8,2.1,0.8c0.9,0,1.6-0.3,2.1-0.8
		c0.5-0.5,0.7-1.3,0.7-2.2V4.9h3.9v9.6c0,1.4-0.3,2.6-0.9,3.6c-0.6,1-1.4,1.7-2.5,2.2s-2.2,0.8-3.4,0.8S77,20.9,76,20.4
		c-1-0.5-1.8-1.2-2.4-2.2c-0.6-1-0.9-2.2-0.9-3.6V4.9H76.7z"/>
	<path id="XMLID_13_" fill="#FFFFFF" d="M103.3,21h-3.9l-6.5-9.9V21H89v-16h3.9l6.5,9.9V4.9h3.9V21z"/>
	<path id="XMLID_18_" fill="#FFFFFF" d="M134.5,4.9v3.1h-4.2V21h-3.9V8.1h-4.2V4.9H134.5z"/>
	<path id="XMLID_20_" fill="#FFFFFF" d="M140.4,4.9v16h-3.9v-16H140.4z"/>
	<path id="XMLID_6_" fill="#FFFFFF" d="M159.1,15.8c-2.8,2.8-7.5,2.8-10.3,0c-2.8-2.8-2.8-7.5,0-10.3c0.3-0.3,0.7-0.6,1.1-0.9
		c-1.4,0.4-2.7,1.1-3.8,2.1c-3.3,3.3-3.3,8.5,0,11.8s8.5,3.3,11.8,0c1.1-1.1,1.8-2.4,2.1-3.8C159.7,15.1,159.4,15.5,159.1,15.8z"/>
	<polygon id="XMLID_22_" fill="#FFFFFF" points="115.4,4.9 110.9,4.9 105.1,21 109.2,21 113.1,9.2 117.1,21 121.2,21 	"/>
</g>
<linearGradient id="XMLID_2_" gradientUnits="userSpaceOnUse" x1="2.9375" y1="41.0625" x2="41.0625" y2="2.9375">
	<stop  offset="0" style="stop-color:#783DA2"/>
	<stop  offset="1" style="stop-color:#494CAE"/>
</linearGradient>
<path id="XMLID_45_" fill="url(#XMLID_2_)" d="M34,0H10C4.5,0,0,4.5,0,10v24c0,5.5,4.5,10,10,10h24c5.5,0,10-4.5,10-10V10
	C44,4.5,39.5,0,34,0z"/>
<linearGradient id="XMLID_3_" gradientUnits="userSpaceOnUse" x1="3.7377" y1="29.0711" x2="34.4044" y2="29.0711" gradientTransform="matrix(0.7071 -0.7071 0.7071 0.7071 -12.0416 14.9289)">
	<stop  offset="0" style="stop-color:#783DA2"/>
	<stop  offset="1" style="stop-color:#313375"/>
</linearGradient>
<circle id="XMLID_59_" fill="url(#XMLID_3_)" cx="22" cy="22" r="15.3"/>
<path id="XMLID_62_" fill="#FFFFFF" d="M35.1,27.9c-5.2,5.2-13.8,5.2-19,0s-5.2-13.8,0-19c0.6-0.6,1.3-1.2,2-1.7
	c-2.6,0.7-5,1.9-7,3.9c-6,6-6,15.7,0,21.7s15.7,6,21.7,0c2-2,3.3-4.4,3.9-7C36.3,26.6,35.7,27.3,35.1,27.9z"/>
</svg>
